<svg width="60" height="64" viewBox="0 0 60 64" fill="none" xmlns="http://www.w3.org/2000/svg">
<path d="M24 4H52V48H24V60H4V40H16V12H24V4Z" fill="#008456"/>
<rect width="12" height="4" transform="matrix(1 0 0 -1 20 4)" fill="#000004"/>
<rect width="12" height="4" transform="matrix(1 0 0 -1 32 8)" fill="#000004"/>
<rect width="8" height="4" transform="matrix(1 0 0 -1 44 4)" fill="#000004"/>
<rect width="4" height="8" transform="matrix(1 0 0 -1 52 12)" fill="#000004"/>
<rect width="4" height="32" transform="matrix(1 0 0 -1 48 44)" fill="#000004"/>
<rect width="24" height="4" transform="matrix(1 0 0 -1 24 40)" fill="#000004"/>
<rect width="24" height="4" transform="matrix(1 0 0 -1 20 52)" fill="#000004"/>
<rect width="12" height="4" transform="matrix(1 0 0 -1 44 48)" fill="#000004"/>
<rect width="4" height="8" transform="matrix(1 0 0 -1 56 56)" fill="#000004"/>
<rect width="16" height="4" transform="matrix(1 0 0 -1 40 60)" fill="#000004"/>
<rect width="4" height="4" transform="matrix(1 0 0 -1 36 56)" fill="#000004"/>
<rect width="4" height="4" transform="matrix(1 0 0 -1 24 56)" fill="#000004"/>
<rect width="4" height="4" transform="matrix(1 0 0 -1 20 60)" fill="#000004"/>
<rect width="4" height="4" transform="matrix(1 0 0 -1 16 48)" fill="#000004"/>
<rect width="8" height="4" transform="matrix(1 0 0 -1 4 40)" fill="#000004"/>
<rect width="4" height="8" transform="matrix(1 0 0 -1 0 48)" fill="#000004"/>
<rect width="4" height="8" transform="matrix(1 0 0 -1 4 60)" fill="#000004"/>
<rect width="12" height="4" transform="matrix(1 0 0 -1 4 52)" fill="#000004"/>
<rect width="12" height="4" transform="matrix(1 0 0 -1 8 64)" fill="#000004"/>
<rect width="4" height="4" transform="matrix(1 0 0 -1 16 12)" fill="#000004"/>
<rect width="4" height="12" transform="matrix(1 0 0 -1 20 16)" fill="#000004"/>
<rect width="4" height="28" transform="matrix(1 0 0 -1 12 40)" fill="#000004"/>
<rect width="8" height="8" transform="matrix(1 0 0 -1 36 32)" fill="#000004"/>
<rect x="20" y="16" width="4" height="4" fill="#003D10"/>
<rect x="32" y="8" width="4" height="4" fill="#003D10"/>
<rect x="44" y="16" width="4" height="4" fill="#003D10"/>
<rect x="44" y="48" width="12" height="4" fill="#003D10"/>
<rect x="40" y="52" width="16" height="4" fill="#003D10"/>
<rect x="28" y="24" width="8" height="8" fill="#FEB854"/>
<rect x="44" y="24" width="4" height="8" fill="#FEB854"/>
<rect x="32" y="20" width="12" height="4" fill="#FEB854"/>
<rect x="32" y="32" width="12" height="4" fill="#FEB854"/>
<rect x="28" y="40" width="4" height="4" fill="#FEB854"/>
<rect x="36" y="40" width="4" height="4" fill="#FEB854"/>
</svg>
